<svg viewBox="0 0 24 24" xmlns="http://www.w3.org/2000/svg" role="presentation">
  <path d="M12 .7a11.3 11.3 0 0 0-3.58 22.02c.57.1.78-.25.78-.56v-1.95c-3.16.69-3.83-1.34-3.83-1.34-.52-1.32-1.26-1.67-1.26-1.67-1.03-.7.08-.69.08-.69 1.13.08 1.73 1.17 1.73 1.17 1.01 1.72 2.64 1.22 3.28.93.1-.73.39-1.22.72-1.5-2.52-.29-5.17-1.26-5.17-5.61 0-1.24.44-2.25 1.17-3.05-.12-.28-.5-1.42.11-2.95 0 0 .96-.3 3.14 1.16a10.9 10.9 0 0 1 5.72 0c2.17-1.46 3.13-1.16 3.13-1.16.62 1.53.23 2.67.12 2.95.73.8 1.16 1.81 1.16 3.05 0 4.36-2.65 5.32-5.18 5.6.4.35.76 1.02.76 2.07v3.07c0 .31.21.67.79.56A11.3 11.3 0 0 0 12 .7Z" />
</svg>
