<svg xmlns="http://www.w3.org/2000/svg" viewBox="0 0 1200 675" role="img" aria-labelledby="toolTitle toolDesc">
  <title id="toolTitle">Tool detail preview</title>
  <desc id="toolDesc">An abstract tool layout with interface panels, a plotted curve, and soft control surfaces.</desc>
  <defs>
    <linearGradient id="toolBg" x1="0%" x2="100%" y1="0%" y2="100%">
      <stop offset="0%" stop-color="#fdf8f7" />
      <stop offset="56%" stop-color="#f5ecef" />
      <stop offset="100%" stop-color="#eef4ef" />
    </linearGradient>
    <linearGradient id="toolPanel" x1="0%" x2="100%" y1="0%" y2="100%">
      <stop offset="0%" stop-color="#fffdfc" />
      <stop offset="100%" stop-color="#f8f1f4" />
    </linearGradient>
  </defs>
  <rect width="1200" height="675" fill="url(#toolBg)" />
  <rect x="82" y="62" width="1036" height="551" rx="40" fill="#fffdfc" opacity="0.8" />
  <rect x="118" y="98" width="964" height="479" rx="34" fill="url(#toolPanel)" opacity="0.96" />
  <rect x="154" y="134" width="122" height="122" rx="28" fill="#cad6cb" />
  <rect x="308" y="146" width="244" height="18" rx="9" fill="#cfa4ad" opacity="0.9" />
  <rect x="308" y="178" width="398" height="12" rx="6" fill="#bcaecc" opacity="0.56" />
  <rect x="154" y="290" width="928" height="216" rx="28" fill="#f2ecf2" />
  <rect x="190" y="326" width="164" height="144" rx="24" fill="#fff8f7" opacity="0.9" />
  <rect x="392" y="326" width="654" height="144" rx="24" fill="#f7eff1" opacity="0.94" />
  <path d="M428 418C494 360 570 352 634 382C708 418 786 432 876 358C920 322 968 316 1010 338" fill="none" stroke="#cfa4ad" stroke-linecap="round" stroke-width="16" />
  <circle cx="510" cy="368" r="14" fill="#cad6cb" />
  <circle cx="694" cy="402" r="14" fill="#bcaecc" />
  <circle cx="878" cy="356" r="14" fill="#cfa4ad" />
  <rect x="154" y="528" width="248" height="28" rx="14" fill="#fff8f7" />
  <rect x="430" y="528" width="188" height="28" rx="14" fill="#f3edf4" />
  <rect x="646" y="528" width="140" height="28" rx="14" fill="#fff8f7" />
</svg>
