<svg xmlns="http://www.w3.org/2000/svg" viewBox="0 0 1200 675" role="img" aria-labelledby="writingTitle writingDesc">
  <title id="writingTitle">Writing detail preview</title>
  <desc id="writingDesc">An abstract writing layout with layered paper panels and editorial text lines.</desc>
  <defs>
    <linearGradient id="writingBg" x1="0%" x2="100%" y1="0%" y2="100%">
      <stop offset="0%" stop-color="#fdf9f7" />
      <stop offset="54%" stop-color="#f7eef1" />
      <stop offset="100%" stop-color="#f2ebf2" />
    </linearGradient>
    <linearGradient id="writingSheet" x1="0%" x2="100%" y1="0%" y2="100%">
      <stop offset="0%" stop-color="#fffefd" />
      <stop offset="100%" stop-color="#faf2f4" />
    </linearGradient>
  </defs>
  <rect width="1200" height="675" fill="url(#writingBg)" />
  <rect x="120" y="82" width="880" height="470" rx="34" fill="#fffaf9" opacity="0.54" transform="rotate(-2 120 82)" />
  <rect x="168" y="76" width="884" height="506" rx="34" fill="url(#writingSheet)" opacity="0.96" />
  <rect x="212" y="122" width="796" height="212" rx="26" fill="#f6e9ec" />
  <rect x="248" y="164" width="264" height="18" rx="9" fill="#cfa4ad" opacity="0.9" />
  <rect x="248" y="198" width="518" height="12" rx="6" fill="#bcaecc" opacity="0.58" />
  <rect x="248" y="226" width="476" height="12" rx="6" fill="#bcaecc" opacity="0.42" />
  <rect x="248" y="254" width="438" height="12" rx="6" fill="#cad6cb" opacity="0.42" />
  <rect x="212" y="374" width="796" height="66" rx="22" fill="#fff8f7" />
  <rect x="248" y="398" width="620" height="10" rx="5" fill="#cfa4ad" opacity="0.34" />
  <rect x="212" y="466" width="796" height="78" rx="24" fill="#fbf4f6" />
  <rect x="248" y="492" width="176" height="26" rx="13" fill="#f2ebf2" />
  <rect x="448" y="492" width="176" height="26" rx="13" fill="#fff8f7" />
  <rect x="648" y="492" width="176" height="26" rx="13" fill="#f2ebf2" />
  <rect x="848" y="492" width="124" height="26" rx="13" fill="#fff8f7" />
</svg>
